# xmcd
#
# Track frame offsets:
# 150
# 18695
# 40007
# 58050
# 76395
# 93400
# 114982
# 135262
# 157947
# 174530
#
# Disc length: 2481 seconds
#
# Revision: 15
# Processed by: cddbd v1.5PL3 Copyright (c) Steve Scherf et al.
# Submitted via: Axialis_AX_CDPlayer 2.6
#
DISCID=7209af0a
DTITLE=Sarah Mclachlan - Surfacing
DYEAR=1997
DGENRE=Blues
TTITLE0=Building A Mystery
TTITLE1=I Love You
TTITLE2=Sweet Surrender
TTITLE3=Adia
TTITLE4=Do What You Have To Do
TTITLE5=Witness
TTITLE6=Angel
TTITLE7=Black and White
TTITLE8=Full Of Grace
TTITLE9=Last Dance
EXTD=Nettwerk Productions\n30116 2\nUPC: 67003 01162\n\nEnhanced CD, Mac and
EXTD=Windows.
EXTT0=
EXTT1=
EXTT2=
EXTT3=
EXTT4=
EXTT5=
EXTT6=
EXTT7=
EXTT8=
EXTT9=
PLAYORDER=
